<svg version="1.1" id="Layer_1" xmlns="http://www.w3.org/2000/svg" xmlns:xlink="http://www.w3.org/1999/xlink" x="0px" y="0px"
	 width="100%" viewBox="0 0 200 200" enable-background="new 0 0 200 200" xml:space="preserve">
<path fill="#C09875" opacity="1.000000" stroke="none" 
	d="
M126.000000,201.000000 
	C84.025948,201.000000 42.551903,201.000000 1.038926,201.000000 
	C1.038926,134.400986 1.038926,67.801956 1.038926,1.101457 
	C67.557205,1.101457 134.114609,1.101457 200.836014,1.101457 
	C200.836014,67.666336 200.836014,134.333130 200.836014,201.000000 
	C176.135574,201.000000 151.317780,201.000000 126.000000,201.000000 
M140.207031,149.149414 
	C143.959290,150.691818 143.202713,147.646820 143.782089,145.208679 
	C143.852005,144.809479 143.921921,144.410263 144.673477,143.950699 
	C148.197800,143.313965 152.016968,143.038025 151.978867,137.498428 
	C151.976257,137.329239 151.973663,137.160049 151.916443,136.269531 
	C150.553162,135.209976 149.189865,134.150421 147.337311,132.789642 
	C146.543030,131.971542 145.748749,131.153442 144.808136,130.077850 
	C144.583466,129.850998 144.324066,129.805984 143.365952,129.982239 
	C142.929489,130.060394 142.493042,130.138550 141.550232,129.893188 
	C138.356277,132.353455 135.162323,134.813721 131.460785,137.585480 
	C130.977295,138.674881 130.493790,139.764267 129.332108,140.802185 
	C128.882126,140.855698 128.432144,140.909210 127.972198,140.367401 
	C127.489952,139.697678 126.609558,138.425461 126.581940,138.443710 
	C123.354744,140.576355 120.190834,142.804764 116.380722,144.984222 
	C115.952698,145.010330 115.524673,145.036423 114.362312,145.071899 
	C113.872749,145.077774 113.383194,145.083649 112.327423,145.196732 
	C111.901405,145.775925 111.475380,146.355118 110.738220,147.411453 
	C110.181343,147.918762 109.624466,148.426086 108.997437,148.371872 
	C107.323021,147.707184 105.648605,147.042496 103.643707,145.930283 
	C103.165642,145.672958 102.687584,145.415619 101.374496,145.145721 
	C100.818565,145.165405 100.262627,145.185089 99.076653,145.085220 
	C98.438499,145.086639 97.800346,145.088074 96.527519,145.037079 
	C96.103996,145.011124 95.680481,144.985184 94.856506,144.437881 
	C94.236977,144.297913 93.617447,144.157944 92.782455,143.463074 
	C92.202011,142.955750 91.621559,142.448441 90.845268,141.345016 
	C86.021057,138.699188 81.196846,136.053360 75.879402,133.064728 
	C75.305405,132.896515 74.731407,132.728302 74.391228,132.038284 
	C73.679527,131.016708 72.967827,129.995117 72.119179,128.218948 
	C70.701363,124.885323 69.218018,121.577629 67.885139,118.210388 
	C66.678833,115.162880 65.013733,112.121201 64.653358,108.951614 
	C63.927441,102.566956 63.951214,96.097069 63.591148,89.409393 
	C63.591148,89.409393 63.435482,89.194855 63.167294,88.434357 
	C62.968407,88.253532 62.769516,88.072716 63.031483,87.251244 
	C63.666157,86.195236 64.300827,85.139236 64.958748,83.454338 
	C64.971420,83.035011 64.984100,82.615677 65.531532,82.001640 
	C65.701706,81.020638 65.871887,80.039627 66.550018,78.719925 
	C67.296089,78.418922 68.042152,78.117928 69.407387,77.617676 
	C70.930252,75.731941 72.453117,73.846214 74.711792,71.925560 
	C76.484467,69.722923 78.257141,67.520287 80.500648,64.971085 
	C80.711967,64.648918 80.923294,64.326752 81.659210,63.833813 
	C82.109703,63.524864 82.560196,63.215919 83.588318,62.809273 
	C83.970192,62.727287 84.352058,62.645302 85.250969,63.010509 
	C86.431519,62.252823 87.612068,61.495136 88.764214,60.834087 
	C88.764214,60.834087 88.734291,60.737911 89.520699,60.779915 
	C91.713562,59.181381 95.973709,62.694626 96.950325,57.905586 
	C96.950325,57.905586 96.821373,57.853855 97.461800,57.695518 
	C98.006927,57.341011 98.552048,56.986500 99.719879,56.797295 
	C100.145401,56.855927 100.570923,56.914558 101.839676,56.974510 
	C102.682358,56.910351 103.525032,56.846191 105.056503,56.587971 
	C106.984383,56.359550 108.912254,56.131126 111.513458,55.956341 
	C111.962074,55.975632 112.410690,55.994919 113.274994,56.372833 
	C113.791832,56.531200 114.308662,56.689571 115.516800,56.932137 
	C115.977142,56.992447 116.437477,57.052757 117.247498,57.695766 
	C121.458221,59.919228 125.612198,62.261021 129.902512,64.318527 
	C132.206726,65.423561 134.745132,66.040306 137.666626,67.108681 
	C140.361237,64.573196 143.055862,62.037704 145.750488,59.502220 
	C145.149231,59.035301 144.547989,58.568386 143.294571,57.858780 
	C142.435623,56.740707 141.576660,55.622639 140.770264,54.572975 
	C139.070526,55.052105 137.563675,55.476864 136.075653,55.250805 
	C135.725113,53.962376 135.374557,52.673946 134.753830,50.723549 
	C133.759109,50.207584 132.764404,49.691620 131.224777,49.127274 
	C130.861633,49.130463 130.498505,49.133652 129.547882,48.872120 
	C128.742294,48.595398 127.936699,48.318676 126.684471,47.730228 
	C126.172081,47.557610 125.659698,47.384991 124.748360,46.805889 
	C123.813774,46.603397 122.879189,46.400909 121.296455,46.052341 
	C120.864799,45.953873 120.433144,45.855404 120.000786,45.138065 
	C119.861267,44.342148 119.995964,43.117863 119.535599,42.823174 
	C117.340012,41.417728 106.971832,43.126423 104.296631,45.016766 
	C103.882370,45.078781 103.468109,45.140793 102.880264,44.744331 
	C101.585686,44.778427 100.291115,44.812523 98.575584,44.987011 
	C98.575584,44.987011 98.147881,45.103951 97.560989,45.013435 
	C96.660751,45.510593 95.760513,46.007751 94.158737,46.343792 
	C92.424698,46.979687 90.690651,47.615582 88.628174,47.957264 
	C88.057793,48.309223 87.487411,48.661186 86.257652,49.083534 
	C85.474907,49.465004 84.692169,49.846470 83.307289,50.048393 
	C82.889381,50.053986 82.471466,50.059578 82.013992,49.967854 
	C82.013992,49.967854 82.065697,50.052883 82.033791,50.696838 
	C82.037399,51.126511 82.041008,51.556183 81.278770,52.013309 
	C80.513832,52.029774 79.748894,52.046242 78.472153,52.157291 
	C78.054024,52.465237 77.635902,52.773182 76.534584,53.132637 
	C75.702278,53.765888 74.869972,54.399143 73.740257,55.205311 
	C73.740257,55.205311 73.407822,55.293835 72.757828,55.367981 
	C71.833496,56.479626 70.909164,57.591270 69.421982,59.003437 
	C69.148636,59.323254 68.875282,59.643066 68.013947,60.059395 
	C67.287483,61.043541 66.561020,62.027691 65.643990,63.602596 
	C64.443329,64.350571 63.242664,65.098557 61.431976,65.549789 
	C60.119286,66.192078 57.919430,66.578293 57.647350,67.520927 
	C56.463863,71.621239 55.841724,75.883575 54.430305,80.201561 
	C53.986374,82.150871 53.542446,84.100174 52.522385,86.168007 
	C52.400112,87.730690 52.277840,89.293373 51.554832,91.013756 
	C47.920891,96.168510 49.647385,101.760590 50.259121,107.693672 
	C50.302479,107.980133 50.335381,108.267799 50.055229,109.160187 
	C50.276505,110.425926 50.497776,111.691658 51.119911,113.500107 
	C52.077438,113.889473 53.034969,114.278847 54.357697,115.083321 
	C53.904469,116.421738 53.451237,117.760147 53.033943,119.869980 
	C54.662285,122.783409 51.631176,127.639442 57.203030,129.664246 
	C58.441154,132.335114 60.330360,134.906479 60.757580,137.701294 
	C61.330505,141.449326 62.924206,142.038483 66.374947,140.989197 
	C66.374947,140.989197 66.727554,140.986389 67.151497,141.322876 
	C67.457458,141.512939 67.763412,141.703003 68.267929,142.473480 
	C69.085518,142.989594 69.903099,143.505722 71.037010,144.524353 
	C71.366531,144.740311 71.696053,144.956284 72.185112,145.820358 
	C75.193558,153.793701 75.193558,153.793701 81.173019,151.293533 
	C81.647957,150.891006 82.122887,150.488464 83.022934,150.659988 
	C83.575661,151.104767 84.128387,151.549545 85.073738,152.515244 
	C85.689339,152.661209 86.304939,152.807175 87.491028,153.209259 
	C88.277321,153.480377 89.063614,153.751495 90.131577,154.545471 
	C90.419373,154.814011 90.707176,155.082550 91.209221,155.920731 
	C92.517754,156.184875 93.826294,156.449036 95.731430,156.858749 
	C96.138283,156.871094 96.545143,156.883438 96.992599,157.458740 
	C97.141533,158.125565 97.290466,158.792389 97.693733,160.597961 
	C98.370430,158.621353 98.659538,157.776871 99.618591,156.947311 
	C100.065231,156.956497 100.511864,156.965683 101.486633,157.089798 
	C102.027039,156.093933 102.567444,155.098083 103.796898,154.075912 
	C105.163254,155.014801 106.529610,155.953705 107.589844,156.982666 
	C107.505737,157.190170 107.421631,157.397690 107.337524,157.605194 
	C107.596359,157.453705 107.855194,157.302200 108.567894,157.104507 
	C108.567894,157.104507 109.008736,156.987061 109.589531,157.209351 
	C110.358978,158.444611 111.128426,159.679886 112.034058,161.133789 
	C114.412155,159.015320 115.760025,157.814606 117.702728,156.699295 
	C118.101631,156.679367 118.500526,156.659424 119.353325,156.880783 
	C121.602776,156.666916 123.907784,156.678268 126.077911,156.142914 
	C127.141907,155.880417 127.955505,154.602921 129.123657,153.412308 
	C129.314484,153.179352 129.545410,152.997253 130.510208,152.752029 
	C131.390915,152.437103 132.271622,152.122177 133.598099,151.663681 
	C133.990356,151.407639 134.382629,151.151581 135.359451,150.736954 
	C135.898239,149.963638 136.437042,149.190323 137.501709,148.575348 
	C137.863831,148.553391 138.225967,148.531433 138.953415,148.709045 
	C139.223511,148.786728 139.499084,148.826309 140.207031,149.149414 
z"/>
<path fill="#C3AB92" opacity="1.000000" stroke="none" 
	d="
M66.023270,140.974152 
	C62.924206,142.038483 61.330505,141.449326 60.757580,137.701294 
	C60.330360,134.906479 58.441154,132.335114 57.099819,129.315231 
	C56.996609,128.966217 57.132790,128.886963 57.504463,128.901276 
	C60.602207,128.274719 63.328281,127.633842 66.358902,126.959717 
	C67.066650,125.862350 67.469864,124.798210 67.793839,123.475601 
	C67.145439,122.829941 66.576271,122.442741 65.806824,121.830399 
	C65.303299,121.342117 65.000069,121.078979 64.842743,120.587593 
	C64.665375,119.596680 64.342094,118.834000 63.935127,117.627335 
	C63.792866,116.887894 63.734295,116.592438 63.731750,116.014168 
	C63.163525,114.827621 62.539268,113.923882 61.983200,112.728943 
	C62.007908,111.565750 61.964428,110.693741 61.806763,109.600540 
	C61.459164,108.938202 61.225754,108.497063 61.187908,107.856827 
	C60.990944,106.936134 60.598412,106.214531 60.172634,105.087425 
	C60.094822,104.141251 60.050259,103.600594 60.037109,102.806946 
	C60.083820,102.385201 60.099125,102.216431 60.384178,101.897766 
	C60.431828,100.509819 60.209721,99.271767 59.989098,98.027100 
	C59.990582,98.020477 59.982533,98.016106 59.984077,97.603157 
	C59.987713,95.566147 59.989807,93.942093 60.257469,92.122330 
	C61.351086,91.236115 62.179127,90.545601 63.170258,89.801620 
	C63.333344,89.748161 63.665695,89.662338 63.665695,89.662338 
	C63.951214,96.097069 63.927441,102.566956 64.653358,108.951614 
	C65.013733,112.121201 66.678833,115.162880 67.885139,118.210388 
	C69.218018,121.577629 70.701363,124.885323 72.131577,128.722183 
	C72.143967,129.225418 72.031303,129.475311 71.675926,129.570251 
	C69.120544,131.410919 66.847466,133.077377 64.788193,134.975754 
	C64.419273,135.315842 64.933830,136.614288 65.189140,137.738495 
	C65.566299,138.995880 65.794785,139.985016 66.023270,140.974152 
z"/>
<path fill="#B8A28C" opacity="1.000000" stroke="none" 
	d="
M76.372643,133.407516 
	C81.196846,136.053360 86.021057,138.699188 90.857468,141.736511 
	C90.869659,142.128021 90.702126,142.316864 90.379929,142.342041 
	C88.265533,145.576263 86.473328,148.785294 84.681122,151.994324 
	C84.128387,151.549545 83.575661,151.104767 82.918854,150.084778 
	C84.109436,146.761810 85.404083,144.014023 86.698738,141.266251 
	C85.945534,140.966125 85.192322,140.666000 84.439117,140.365875 
	C83.199074,144.033524 81.959038,147.701187 80.718994,151.368835 
	C75.193558,153.793701 75.193558,153.793701 72.391945,145.316177 
	C74.859055,142.179260 77.119331,139.546509 80.099991,136.074677 
	C77.998581,136.074677 77.233498,136.074677 76.336914,135.756485 
	C76.261162,134.761368 76.316902,134.084442 76.372643,133.407516 
z"/>
<path fill="#BDA38D" opacity="1.000000" stroke="none" 
	d="
M131.968384,137.274002 
	C135.162323,134.813721 138.356277,132.353455 141.843018,130.385681 
	C145.406769,133.253845 148.677719,135.629532 151.948669,138.005203 
	C152.016968,143.038025 148.197800,143.313965 144.071320,143.773880 
	C141.298340,141.050949 139.127533,138.504852 136.068588,134.917068 
	C136.068588,138.049149 136.068588,139.604416 135.747025,141.020157 
	C134.273224,140.190079 133.120987,139.499527 131.972321,138.551941 
	C131.973373,137.954620 131.970886,137.614304 131.968384,137.274002 
M145.669647,141.582138 
	C146.256119,141.267487 146.842606,140.952835 147.429092,140.638199 
	C145.048172,138.128021 142.667236,135.617859 140.286316,133.107681 
	C139.791138,133.621155 139.295959,134.134628 138.800766,134.648102 
	C140.904694,136.840393 143.008621,139.032700 145.669647,141.582138 
z"/>
<path fill="#BBA48D" opacity="1.000000" stroke="none" 
	d="
M116.897820,57.113068 
	C116.437477,57.052757 115.977142,56.992447 115.214378,56.479767 
	C115.268005,53.241833 115.744560,50.461819 115.873276,47.665791 
	C115.897545,47.138504 114.536926,46.547462 113.580048,46.064140 
	C112.928780,46.408287 112.512802,46.674129 112.056244,46.976959 
	C112.015656,47.013947 111.942215,47.095608 111.722069,47.075333 
	C111.501923,47.055061 111.063728,46.996002 110.972908,46.666447 
	C107.157211,42.443043 108.806877,49.243996 106.269180,48.328510 
	C105.890091,47.404331 105.407562,46.227978 104.925034,45.051624 
	C106.971832,43.126423 117.340012,41.417728 119.535599,42.823174 
	C119.995964,43.117863 119.861267,44.342148 119.782158,45.772644 
	C118.751343,49.898338 117.939163,53.389458 117.069336,56.938347 
	C117.011696,56.996120 116.897820,57.113068 116.897820,57.113068 
z"/>
<path fill="#BCA28B" opacity="1.000000" stroke="none" 
	d="
M55.015625,80.087044 
	C55.841724,75.883575 56.463863,71.621239 57.647350,67.520927 
	C57.919430,66.578293 60.119286,66.192078 61.552532,65.999283 
	C61.736103,68.069450 61.799118,69.690125 61.527817,71.313095 
	C60.313232,71.498856 59.432968,71.682327 57.703037,72.042900 
	C60.012562,73.650238 61.512291,74.576515 62.815609,75.725571 
	C63.014950,75.901314 62.306923,77.106224 61.787189,77.582657 
	C59.925858,76.902039 58.295898,76.473892 56.665939,76.045746 
	C56.496483,76.458168 56.327026,76.870590 56.157570,77.283012 
	C59.103970,78.920792 62.050373,80.558571 64.996773,82.196350 
	C64.984100,82.615677 64.971420,83.035011 64.599869,83.667877 
	C61.165863,82.616631 58.090744,81.351837 55.015625,80.087044 
z"/>
<path fill="#F3E2CC" opacity="1.000000" stroke="none" 
	d="
M104.610832,45.034195 
	C105.407562,46.227978 105.890091,47.404331 106.269180,48.328510 
	C108.806877,49.243996 107.157211,42.443043 110.920372,47.111622 
	C110.919151,50.558472 110.879646,53.230591 110.840134,55.902710 
	C108.912254,56.131126 106.984383,56.359550 104.590088,56.304108 
	C103.767075,52.414433 103.410461,48.808620 103.053848,45.202808 
	C103.468109,45.140793 103.882370,45.078781 104.610832,45.034195 
z"/>
<path fill="#BCA48B" opacity="1.000000" stroke="none" 
	d="
M128.882416,153.784790 
	C127.955505,154.602921 127.141907,155.880417 126.077911,156.142914 
	C123.907784,156.678268 121.602776,156.666916 119.160339,156.359009 
	C118.422470,152.331497 117.877586,148.825790 117.708046,145.260101 
	C118.585556,145.131882 119.087715,145.063614 119.706192,145.376495 
	C120.686211,148.695572 121.549919,151.633530 122.413628,154.571472 
	C122.993874,154.397995 123.574120,154.224533 124.154358,154.051056 
	C123.366806,150.732361 122.579247,147.413666 122.131020,144.074615 
	C122.923225,144.035797 123.376091,144.017334 123.968544,144.338165 
	C125.699562,147.713226 127.291000,150.749008 128.882416,153.784790 
z"/>
<path fill="#C6AD98" opacity="1.000000" stroke="none" 
	d="
M61.862133,71.310799 
	C61.799118,69.690125 61.736103,68.069450 61.857544,66.147659 
	C63.242664,65.098557 64.443329,64.350571 66.086067,63.394630 
	C68.000130,66.015320 69.472122,68.843971 70.981735,71.744934 
	C71.809654,71.276398 72.938919,70.637314 74.054214,70.325577 
	C74.018829,71.088768 73.997406,71.524620 73.975983,71.960480 
	C72.453117,73.846214 70.930252,75.731941 69.093903,77.454163 
	C68.587303,76.617889 68.394180,75.945137 68.152512,74.907928 
	C68.044579,74.060989 67.985199,73.578491 67.899872,72.780258 
	C67.294205,70.170853 66.394127,69.662231 64.732277,71.978577 
	C64.298546,72.032333 64.125191,72.054916 63.947906,72.057159 
	C63.943977,72.036812 63.971813,72.062607 63.762177,71.866844 
	C63.024567,71.467812 62.496597,71.264549 61.987835,71.143219 
	C62.007046,71.225159 61.862133,71.310799 61.862133,71.310799 
z"/>
<path fill="#F2E0CE" opacity="1.000000" stroke="none" 
	d="
M136.056808,55.901623 
	C137.563675,55.476864 139.070526,55.052105 140.770264,54.572975 
	C141.576660,55.622639 142.435623,56.740707 143.428986,58.225441 
	C141.389633,60.390465 139.215866,62.188835 136.726547,64.083893 
	C134.942215,63.362614 133.473419,62.544636 132.086639,61.414047 
	C133.464691,59.368168 134.760757,57.634895 136.056808,55.901623 
z"/>
<path fill="#BCA48B" opacity="1.000000" stroke="none" 
	d="
M112.893631,145.089539 
	C113.383194,145.083649 113.872749,145.077774 114.742126,145.461029 
	C115.783920,149.438080 116.445908,153.025970 117.107895,156.613876 
	C115.760025,157.814606 114.412155,159.015320 112.034058,161.133789 
	C111.128426,159.679886 110.358978,158.444611 109.293152,156.731293 
	C109.063164,154.960464 109.129555,153.667679 109.202744,152.242538 
	C110.717255,152.684311 111.966187,153.048615 113.215118,153.412918 
	C113.490120,152.934814 113.765129,152.456711 114.040131,151.978607 
	C112.382614,150.963547 110.725105,149.948471 109.067589,148.933411 
	C109.624466,148.426086 110.181343,147.918762 111.167213,147.099182 
	C112.028687,146.221130 112.461166,145.655334 112.893631,145.089539 
z"/>
<path fill="#F4E4CC" opacity="1.000000" stroke="none" 
	d="
M77.217773,53.081123 
	C77.635902,52.773182 78.054024,52.465237 78.897598,52.384647 
	C80.623009,54.110493 81.738029,54.805130 82.044617,51.985855 
	C82.041008,51.556183 82.037399,51.126511 82.017441,50.349201 
	C82.001091,50.001564 82.053558,50.065166 82.053558,50.065166 
	C82.471466,50.059578 82.889381,50.053986 83.770172,50.425541 
	C85.633080,53.272133 87.033104,55.741573 88.508484,58.523258 
	C88.633987,59.469635 88.684135,60.103775 88.734291,60.737911 
	C88.734291,60.737911 88.764214,60.834087 88.459717,60.775993 
	C86.769379,59.837147 85.383530,58.956398 83.436729,57.719147 
	C84.001762,59.829147 84.367844,61.196232 84.733932,62.563313 
	C84.352058,62.645302 83.970192,62.727287 83.107544,62.585892 
	C80.823776,59.268715 79.020775,56.174919 77.217773,53.081123 
z"/>
<path fill="#BBA48D" opacity="1.000000" stroke="none" 
	d="
M64.696838,120.815826 
	C65.000069,121.078979 65.303299,121.342117 65.511703,122.000061 
	C62.655510,124.558899 59.894150,126.722931 57.132790,128.886963 
	C57.132790,128.886963 56.996609,128.966217 56.929153,129.008636 
	C51.631176,127.639442 54.662285,122.783409 53.416008,119.465614 
	C57.090626,118.139824 60.383175,117.218399 63.675724,116.296982 
	C63.734295,116.592438 63.792866,116.887894 63.657082,117.833435 
	C60.702389,119.822006 57.942047,121.160500 55.181705,122.498993 
	C55.381695,122.950081 55.581688,123.401169 55.781677,123.852257 
	C58.753395,122.840111 61.725117,121.827972 64.696838,120.815826 
z"/>
<path fill="#BCA690" opacity="1.000000" stroke="none" 
	d="
M119.589882,144.995331 
	C119.087715,145.063614 118.585556,145.131882 117.615952,145.203278 
	C117.148521,145.206406 117.023514,145.028015 117.023514,145.028015 
	C120.190834,142.804764 123.354744,140.576355 126.581940,138.443710 
	C126.609558,138.425461 127.489952,139.697678 128.006042,141.029846 
	C129.744034,145.063950 131.448181,148.435608 133.152328,151.807251 
	C132.271622,152.122177 131.390915,152.437103 130.057388,152.484253 
	C128.525497,149.663330 127.547913,147.057892 126.281769,144.601166 
	C126.028419,144.109589 124.675102,144.184921 123.828964,143.998871 
	C123.376091,144.017334 122.923225,144.035797 121.824692,144.098312 
	C120.649323,144.426682 120.119606,144.711014 119.589882,144.995331 
z"/>
<path fill="#EEDEC9" opacity="1.000000" stroke="none" 
	d="
M54.722965,80.144302 
	C58.090744,81.351837 61.165863,82.616631 64.588242,83.982330 
	C64.300827,85.139236 63.666157,86.195236 62.538773,87.606842 
	C59.063549,87.324783 56.081032,86.687134 53.098518,86.049484 
	C53.542446,84.100174 53.986374,82.150871 54.722965,80.144302 
z"/>
<path fill="#BAA390" opacity="1.000000" stroke="none" 
	d="
M60.005692,103.059929 
	C60.050259,103.600594 60.094822,104.141251 59.867599,105.164413 
	C56.473690,106.184372 53.351574,106.721840 50.229458,107.259300 
	C49.647385,101.760590 47.920891,96.168510 51.849747,90.919327 
	C52.144661,90.824898 52.172817,90.851669 52.133617,91.236679 
	C52.396904,94.081497 52.699394,96.541306 53.139717,99.315231 
	C54.272812,103.219406 56.621803,104.154495 60.005692,103.059929 
z"/>
<path fill="#CEBDA8" opacity="1.000000" stroke="none" 
	d="
M109.032516,148.652649 
	C110.725105,149.948471 112.382614,150.963547 114.040131,151.978607 
	C113.765129,152.456711 113.490120,152.934814 113.215118,153.412918 
	C111.966187,153.048615 110.717255,152.684311 109.202744,152.242538 
	C109.129555,153.667679 109.063164,154.960464 109.002754,156.620148 
	C109.008736,156.987061 108.567894,157.104507 108.287132,157.062500 
	C108.006371,157.020477 107.895966,156.892593 107.895966,156.892593 
	C106.529610,155.953705 105.163254,155.014801 103.405319,153.690552 
	C103.333885,150.996063 103.654037,148.686935 103.974190,146.377808 
	C105.648605,147.042496 107.323021,147.707184 109.032516,148.652649 
z"/>
<path fill="#F3E2CC" opacity="1.000000" stroke="none" 
	d="
M88.956612,48.251476 
	C90.690651,47.615582 92.424698,46.979687 94.542381,46.789742 
	C95.557808,50.775078 96.189590,54.314465 96.821373,57.853855 
	C96.821373,57.853855 96.950325,57.905586 96.577026,57.853989 
	C95.129417,57.179237 94.055107,56.556080 92.805687,55.723476 
	C91.405922,53.093178 90.181267,50.672325 88.956612,48.251476 
z"/>
<path fill="#F2E2CD" opacity="1.000000" stroke="none" 
	d="
M52.810452,86.108749 
	C56.081032,86.687134 59.063549,87.324783 62.308346,87.927162 
	C62.769516,88.072716 62.968407,88.253532 63.228569,88.921921 
	C63.190525,89.554787 63.096302,89.703316 63.007172,89.855087 
	C62.179127,90.545601 61.351086,91.236115 59.865204,92.004913 
	C56.862518,91.672684 54.517670,91.262177 52.172817,90.851669 
	C52.172817,90.851669 52.144661,90.824898 52.150112,90.840477 
	C52.277840,89.293373 52.400112,87.730690 52.810452,86.108749 
z"/>
<path fill="#BCA48B" opacity="1.000000" stroke="none" 
	d="
M74.343887,71.943024 
	C73.997406,71.524620 74.018829,71.088768 74.231674,70.065636 
	C74.658226,68.893204 74.893356,68.308037 75.455551,67.713867 
	C75.826439,66.690971 76.314720,65.309982 75.834671,64.728745 
	C74.057724,62.577251 71.961243,60.689667 69.984833,58.702915 
	C70.909164,57.591270 71.833496,56.479626 73.009964,55.659672 
	C75.517998,59.073460 77.773911,62.195560 80.029816,65.317657 
	C78.257141,67.520287 76.484467,69.722923 74.343887,71.943024 
z"/>
<path fill="#BBA48D" opacity="1.000000" stroke="none" 
	d="
M132.004639,61.726662 
	C133.473419,62.544636 134.942215,63.362614 136.752136,64.445610 
	C137.121460,65.432884 137.149658,66.155136 137.177856,66.877388 
	C134.745132,66.040306 132.206726,65.423561 129.902512,64.318527 
	C125.612198,62.261021 121.458221,59.919228 117.072662,57.404419 
	C116.897820,57.113068 117.011696,56.996120 117.376938,56.970707 
	C118.359734,56.917030 118.977303,56.888767 119.909233,56.886604 
	C120.641045,56.937393 121.058495,56.962086 121.567268,57.253250 
	C122.445976,57.680759 123.233353,57.841797 124.445328,58.034447 
	C125.153236,58.083275 125.436562,58.100487 125.733246,58.370049 
	C125.831604,59.119217 125.916588,59.616035 126.275589,60.273266 
	C127.585526,60.620571 128.621460,60.807468 129.879395,61.245644 
	C130.735794,61.573502 131.370224,61.650082 132.004639,61.726662 
z"/>
<path fill="#C0AC97" opacity="1.000000" stroke="none" 
	d="
M75.128487,67.722878 
	C74.893356,68.308037 74.658226,68.893204 74.245644,69.738297 
	C72.938919,70.637314 71.809654,71.276398 70.981735,71.744934 
	C69.472122,68.843971 68.000130,66.015320 66.181351,63.099255 
	C66.561020,62.027691 67.287483,61.043541 68.509995,60.291557 
	C70.347778,62.499863 71.689507,64.475998 73.226013,66.711258 
	C73.966820,67.300934 74.512848,67.631500 75.026672,67.887825 
	C74.994461,67.813591 75.128487,67.722878 75.128487,67.722878 
z"/>
<path fill="#F2E2C9" opacity="1.000000" stroke="none" 
	d="
M63.731750,116.014160 
	C60.383175,117.218399 57.090626,118.139824 53.398041,119.079910 
	C53.451237,117.760147 53.904469,116.421738 54.284580,114.664688 
	C56.779316,113.837418 59.347164,113.428780 61.915016,113.020142 
	C62.539268,113.923882 63.163525,114.827621 63.731750,116.014160 
z"/>
<path fill="#F3E2CC" opacity="1.000000" stroke="none" 
	d="
M68.201065,75.272385 
	C68.394180,75.945137 68.587303,76.617889 68.784325,77.553787 
	C68.042152,78.117928 67.296089,78.418922 66.083023,78.855263 
	C64.416878,78.605446 63.217720,78.220291 62.018562,77.835136 
	C62.306923,77.106224 63.014950,75.901314 62.815609,75.725571 
	C61.512291,74.576515 60.012562,73.650238 57.703037,72.042900 
	C59.432968,71.682327 60.313232,71.498856 61.527817,71.313095 
	C61.862133,71.310799 62.007046,71.225159 62.106564,71.447083 
	C62.794659,71.800201 63.383236,71.931404 63.971813,72.062607 
	C63.971813,72.062607 63.943977,72.036812 63.982708,72.366959 
	C64.322319,72.980438 64.623207,73.263779 65.036438,73.704063 
	C65.339325,74.043053 65.561920,74.167984 66.083038,74.426849 
	C66.966698,74.836052 67.583885,75.054222 68.201065,75.272385 
z"/>
<path fill="#F3E0C7" opacity="1.000000" stroke="none" 
	d="
M136.068588,141.159698 
	C136.068588,139.604416 136.068588,138.049149 136.068588,134.917068 
	C139.127533,138.504852 141.298340,141.050949 143.730499,143.804062 
	C143.921921,144.410263 143.852005,144.809479 143.366821,145.517426 
	C141.297913,145.208267 139.644272,144.590363 137.834717,143.733185 
	C137.142059,142.715836 136.605331,141.937775 136.068588,141.159698 
z"/>
<path fill="#F4E4CC" opacity="1.000000" stroke="none" 
	d="
M137.422241,66.993034 
	C137.149658,66.155136 137.121460,65.432884 137.067688,64.348923 
	C139.215866,62.188835 141.389633,60.390465 143.755066,58.346783 
	C144.547989,58.568386 145.149231,59.035301 145.750488,59.502220 
	C143.055862,62.037704 140.361237,64.573196 137.422241,66.993034 
z"/>
<path fill="#BBA48D" opacity="1.000000" stroke="none" 
	d="
M102.967056,44.973572 
	C103.410461,48.808620 103.767075,52.414433 104.245697,56.401138 
	C103.525032,56.846191 102.682358,56.910351 101.484955,56.540222 
	C100.418999,52.352833 99.707771,48.599724 98.996536,44.846619 
	C100.291115,44.812523 101.585686,44.778427 102.967056,44.973572 
z"/>
<path fill="#F2E2CD" opacity="1.000000" stroke="none" 
	d="
M76.126022,133.236115 
	C76.316902,134.084442 76.261162,134.761368 76.347527,135.736816 
	C76.489632,136.035355 76.534256,136.021088 76.159134,135.911224 
	C73.212456,137.831924 70.640915,139.862488 68.069374,141.893066 
	C67.763412,141.703003 67.457458,141.512939 67.054840,140.826355 
	C69.357925,137.739929 71.757668,135.150009 74.157410,132.560089 
	C74.731407,132.728302 75.305405,132.896515 76.126022,133.236115 
z"/>
<path fill="#F8E7D5" opacity="1.000000" stroke="none" 
	d="
M61.983200,112.728943 
	C59.347164,113.428780 56.779316,113.837418 54.101982,114.457130 
	C53.034969,114.278847 52.077438,113.889473 51.209957,112.979996 
	C54.840321,111.580513 58.380634,110.701126 61.920948,109.821739 
	C61.964428,110.693741 62.007908,111.565750 61.983200,112.728943 
z"/>
<path fill="#B8A28C" opacity="1.000000" stroke="none" 
	d="
M76.876175,53.106880 
	C79.020775,56.174919 80.823776,59.268715 82.818726,62.634743 
	C82.560196,63.215919 82.109703,63.524864 81.193672,63.647507 
	C78.497978,60.651596 76.267822,57.841995 74.037659,55.032394 
	C74.869972,54.399143 75.702278,53.765888 76.876175,53.106880 
z"/>
<path fill="#B8A28C" opacity="1.000000" stroke="none" 
	d="
M129.657410,60.994366 
	C128.621460,60.807468 127.585526,60.620571 126.623703,60.203686 
	C128.388443,56.374352 130.079056,52.775002 131.769684,49.175655 
	C132.764404,49.691620 133.759109,50.207584 134.739288,51.335747 
	C133.035614,54.963425 131.346512,57.978897 129.657410,60.994366 
z"/>
<path fill="#BCA690" opacity="1.000000" stroke="none" 
	d="
M97.141586,57.774689 
	C96.189590,54.314465 95.557808,50.775078 94.893150,46.870300 
	C95.760513,46.007751 96.660751,45.510593 97.802811,45.482281 
	C98.395477,49.511414 98.746323,53.071697 99.097168,56.631989 
	C98.552048,56.986500 98.006927,57.341011 97.141586,57.774689 
z"/>
<path fill="#BAA390" opacity="1.000000" stroke="none" 
	d="
M61.806763,109.600540 
	C58.380634,110.701126 54.840321,111.580513 51.009529,112.708649 
	C50.497776,111.691658 50.276505,110.425926 50.592613,108.940590 
	C54.417442,108.499306 57.704895,108.277618 60.992344,108.055931 
	C61.225754,108.497063 61.459164,108.938202 61.806763,109.600540 
z"/>
<path fill="#B69F87" opacity="1.000000" stroke="none" 
	d="
M74.274323,132.299194 
	C71.757668,135.150009 69.357925,137.739929 66.842873,140.658112 
	C66.727554,140.986389 66.374947,140.989197 66.199112,140.981674 
	C65.794785,139.985016 65.566299,138.995880 65.455307,137.503418 
	C67.725647,134.491821 69.878471,131.983566 72.031296,129.475311 
	C72.031303,129.475311 72.143967,129.225418 72.200043,129.099487 
	C72.967827,129.995117 73.679527,131.016708 74.274323,132.299194 
z"/>
<path fill="#BCA48B" opacity="1.000000" stroke="none" 
	d="
M89.849907,154.022614 
	C89.063614,153.751495 88.277321,153.480377 87.302414,152.736084 
	C88.309906,148.947556 89.506012,145.632217 90.702126,142.316864 
	C90.702126,142.316864 90.869659,142.128021 90.955383,142.034576 
	C91.621559,142.448441 92.202011,142.955750 92.784073,144.095978 
	C91.807091,147.826797 90.828499,150.924713 89.849907,154.022614 
z"/>
<path fill="#F4E4CC" opacity="1.000000" stroke="none" 
	d="
M151.963776,137.751816 
	C148.677719,135.629532 145.406769,133.253845 142.096191,130.547424 
	C142.493042,130.138550 142.929489,130.060394 143.918549,130.085052 
	C144.632263,130.237030 144.793365,130.286194 144.954468,130.335358 
	C145.748749,131.153442 146.543030,131.971542 147.772675,133.196793 
	C149.462372,134.732910 150.716705,135.861877 151.971054,136.990845 
	C151.973663,137.160049 151.976257,137.329239 151.963776,137.751816 
z"/>
<path fill="#F6E5D0" opacity="1.000000" stroke="none" 
	d="
M129.879395,61.245644 
	C131.346512,57.978897 133.035614,54.963425 134.874374,51.666733 
	C135.374557,52.673946 135.725113,53.962376 136.066223,55.576214 
	C134.760757,57.634895 133.464691,59.368168 132.086639,61.414047 
	C131.370224,61.650082 130.735794,61.573502 129.879395,61.245644 
z"/>
<path fill="#F8E7D1" opacity="1.000000" stroke="none" 
	d="
M88.792389,48.104370 
	C90.181267,50.672325 91.405922,53.093178 92.752182,56.040352 
	C91.962547,57.041351 91.051300,57.516026 90.097839,57.618439 
	C89.009422,54.501839 87.963226,51.757496 86.917030,49.013149 
	C87.487411,48.661186 88.057793,48.309223 88.792389,48.104370 
z"/>
<path fill="#F9EBD7" opacity="1.000000" stroke="none" 
	d="
M96.951996,156.895782 
	C96.545143,156.883438 96.138283,156.871094 95.449104,156.459946 
	C95.220955,155.410004 95.275131,154.758850 95.489136,153.768066 
	C96.153374,150.648788 96.657784,147.869156 97.162193,145.089508 
	C97.800346,145.088074 98.438499,145.086639 99.313278,145.502014 
	C98.907562,149.220276 98.265236,152.521744 97.468323,155.971649 
	C97.150208,156.358627 97.029633,156.617188 96.951996,156.895782 
z"/>
<path fill="#F6E8D5" opacity="1.000000" stroke="none" 
	d="
M131.497223,49.151466 
	C130.079056,52.775002 128.388443,56.374352 126.349701,60.043278 
	C125.916588,59.616035 125.831604,59.119217 125.904747,58.117302 
	C127.420380,54.787086 128.777878,51.961967 130.135361,49.136845 
	C130.498505,49.133652 130.861633,49.130463 131.497223,49.151466 
z"/>
<path fill="#F8E7D1" opacity="1.000000" stroke="none" 
	d="
M61.187908,107.856827 
	C57.704895,108.277618 54.417442,108.499306 50.743912,108.638824 
	C50.335381,108.267799 50.302479,107.980133 50.244289,107.476486 
	C53.351574,106.721840 56.473690,106.184372 59.900841,105.569916 
	C60.598412,106.214531 60.990944,106.936134 61.187908,107.856827 
z"/>
<path fill="#F6E5D0" opacity="1.000000" stroke="none" 
	d="
M124.020721,58.002834 
	C123.233353,57.841797 122.445976,57.680759 121.718079,56.895950 
	C122.508675,53.852287 123.239807,51.432400 124.130173,48.794502 
	C124.575378,48.121784 124.861336,47.667072 125.147308,47.212364 
	C125.659698,47.384991 126.172081,47.557610 126.795395,48.238968 
	C125.944450,51.832745 124.982590,54.917789 124.020721,58.002834 
z"/>
<path fill="#F8E7D1" opacity="1.000000" stroke="none" 
	d="
M80.946007,151.331177 
	C81.959038,147.701187 83.199074,144.033524 84.439117,140.365875 
	C85.192322,140.666000 85.945534,140.966125 86.698738,141.266251 
	C85.404083,144.014023 84.109436,146.761810 82.706299,149.797760 
	C82.122887,150.488464 81.647957,150.891006 80.946007,151.331177 
z"/>
<path fill="#F8E7D1" opacity="1.000000" stroke="none" 
	d="
M116.702118,145.006119 
	C117.023514,145.028015 117.148521,145.206406 117.240616,145.263245 
	C117.877586,148.825790 118.422470,152.331497 118.933395,156.238358 
	C118.500526,156.659424 118.101631,156.679367 117.405312,156.656586 
	C116.445908,153.025970 115.783920,149.438080 115.109299,145.456345 
	C115.524673,145.036423 115.952698,145.010330 116.702118,145.006119 
z"/>
<path fill="#B8A28C" opacity="1.000000" stroke="none" 
	d="
M97.622910,155.823196 
	C98.265236,152.521744 98.907562,149.220276 99.628296,145.561798 
	C100.262627,145.185089 100.818565,145.165405 101.666458,145.535721 
	C101.625114,149.608765 101.291809,153.291824 100.958504,156.974854 
	C100.511864,156.965683 100.065231,156.956497 99.078323,156.739197 
	C98.233009,156.295135 97.927956,156.059158 97.622910,155.823196 
z"/>
<path fill="#F6E8D5" opacity="1.000000" stroke="none" 
	d="
M101.222565,157.032333 
	C101.291809,153.291824 101.625114,149.608765 102.083969,145.542007 
	C102.687584,145.415619 103.165642,145.672958 103.808945,146.154053 
	C103.654037,148.686935 103.333885,150.996063 103.060791,153.703705 
	C102.567444,155.098083 102.027039,156.093933 101.222565,157.032333 
z"/>
<path fill="#F6E5D0" opacity="1.000000" stroke="none" 
	d="
M73.031235,66.452141 
	C71.689507,64.475998 70.347778,62.499863 68.803993,60.243301 
	C68.875282,59.643066 69.148636,59.323254 69.703407,58.853176 
	C71.961243,60.689667 74.057724,62.577251 75.834671,64.728745 
	C76.314720,65.309982 75.826439,66.690971 75.455551,67.713867 
	C75.128487,67.722878 74.994461,67.813591 74.869400,67.595184 
	C74.173302,67.068573 73.602264,66.760353 73.031235,66.452141 
z"/>
<path fill="#F9EBD7" opacity="1.000000" stroke="none" 
	d="
M76.534256,136.021088 
	C76.534256,136.021088 76.489632,136.035355 76.479019,136.055023 
	C77.233498,136.074677 77.998581,136.074677 80.099991,136.074677 
	C77.119331,139.546509 74.859055,142.179260 72.312180,144.992126 
	C71.696053,144.956284 71.366531,144.740311 71.086914,143.992584 
	C72.935966,140.980896 74.735115,138.500992 76.534256,136.021088 
z"/>
<path fill="#B6A08D" opacity="1.000000" stroke="none" 
	d="
M136.975845,148.417007 
	C136.437042,149.190323 135.898239,149.963638 134.974548,150.499725 
	C133.326691,147.603699 132.063705,144.944901 130.998688,142.048492 
	C131.492203,141.524704 131.787796,141.238541 132.326569,141.178329 
	C134.038437,143.741852 135.507141,146.079422 136.975845,148.417007 
z"/>
<path fill="#BCA690" opacity="1.000000" stroke="none" 
	d="
M124.445320,58.034447 
	C124.982590,54.917789 125.944450,51.832745 127.018707,48.394829 
	C127.936699,48.318676 128.742294,48.595398 129.841614,49.004482 
	C128.777878,51.961967 127.420380,54.787086 125.891388,57.864952 
	C125.436562,58.100487 125.153236,58.083275 124.445320,58.034447 
z"/>
<path fill="#F8E7D1" opacity="1.000000" stroke="none" 
	d="
M119.594864,56.860504 
	C118.977303,56.888767 118.359734,56.917030 117.434578,56.912933 
	C117.939163,53.389458 118.751343,49.898338 119.782509,46.082077 
	C120.433144,45.855404 120.864799,45.953873 121.546478,46.404076 
	C121.622772,47.506645 121.449036,48.257473 121.183350,49.398499 
	C120.592552,52.145966 120.093704,54.503235 119.594864,56.860504 
z"/>
<path fill="#F8E7D1" opacity="1.000000" stroke="none" 
	d="
M137.238770,148.496185 
	C135.507141,146.079422 134.038437,143.741852 132.292740,140.822281 
	C132.000076,139.763184 131.984421,139.286087 131.968750,138.808975 
	C133.120987,139.499527 134.273224,140.190079 135.747025,141.020157 
	C136.605331,141.937775 137.142059,142.715836 137.853760,144.061325 
	C138.349258,145.427078 138.669815,146.225418 138.996155,147.266693 
	C139.001923,147.509644 139.004379,147.995743 138.897018,148.121521 
	C138.789658,148.247284 138.588089,148.509476 138.588089,148.509491 
	C138.225967,148.531433 137.863831,148.553391 137.238770,148.496185 
z"/>
<path fill="#F8E7D5" opacity="1.000000" stroke="none" 
	d="
M130.800735,142.286118 
	C132.063705,144.944901 133.326691,147.603699 134.682281,150.579010 
	C134.382629,151.151581 133.990356,151.407639 133.375214,151.735474 
	C131.448181,148.435608 129.744034,145.063950 128.011017,141.327515 
	C128.432144,140.909210 128.882126,140.855698 129.756714,141.090714 
	C130.387787,141.681534 130.594254,141.983826 130.800735,142.286118 
z"/>
<path fill="#F8E7D1" opacity="1.000000" stroke="none" 
	d="
M99.408524,56.714638 
	C98.746323,53.071697 98.395477,49.511414 98.096260,45.527538 
	C98.147881,45.103951 98.575584,44.987011 98.786057,44.916817 
	C99.707771,48.599724 100.418999,52.352833 101.063339,56.539566 
	C100.570923,56.914558 100.145401,56.855927 99.408524,56.714638 
z"/>
<path fill="#F8E7D1" opacity="1.000000" stroke="none" 
	d="
M90.379929,142.342041 
	C89.506012,145.632217 88.309906,148.947556 87.017166,152.608032 
	C86.304939,152.807175 85.689339,152.661209 84.877426,152.254791 
	C86.473328,148.785294 88.265533,145.576263 90.379929,142.342041 
z"/>
<path fill="#F6E8D5" opacity="1.000000" stroke="none" 
	d="
M123.968544,144.338165 
	C124.675102,144.184921 126.028419,144.109589 126.281769,144.601166 
	C127.547913,147.057892 128.525497,149.663330 129.710510,152.541229 
	C129.545410,152.997253 129.314484,153.179352 129.003052,153.598541 
	C127.291000,150.749008 125.699562,147.713226 123.968544,144.338165 
z"/>
<path fill="#F9EBD7" opacity="1.000000" stroke="none" 
	d="
M113.815346,45.985840 
	C114.536926,46.547462 115.897545,47.138504 115.873276,47.665791 
	C115.744560,50.461819 115.268005,53.241833 114.868729,56.437668 
	C114.308662,56.689571 113.791832,56.531200 113.104553,55.769291 
	C113.227852,52.105778 113.521599,49.045811 113.815346,45.985840 
z"/>
<path fill="#F9EBD4" opacity="1.000000" stroke="none" 
	d="
M89.990738,154.284042 
	C90.828499,150.924713 91.807091,147.826797 92.891800,144.373444 
	C93.617447,144.157944 94.236977,144.297913 94.920937,145.052917 
	C94.115433,148.449615 93.245499,151.231308 92.163269,154.254166 
	C91.632317,154.780594 91.313644,155.065842 90.994972,155.351089 
	C90.707176,155.082550 90.419373,154.814011 89.990738,154.284042 
z"/>
<path fill="#F9EBD4" opacity="1.000000" stroke="none" 
	d="
M73.888962,55.118851 
	C76.267822,57.841995 78.497978,60.651596 80.931374,63.732895 
	C80.923294,64.326752 80.711967,64.648918 80.265228,65.144371 
	C77.773911,62.195560 75.517998,59.073460 73.334961,55.622597 
	C73.407822,55.293835 73.740257,55.205311 73.888962,55.118851 
z"/>
<path fill="#BBA48D" opacity="1.000000" stroke="none" 
	d="
M86.587341,49.048340 
	C87.963226,51.757496 89.009422,54.501839 89.670792,57.672241 
	C89.001686,58.135880 88.717415,58.173450 88.433136,58.211018 
	C87.033104,55.741573 85.633080,53.272133 84.071236,50.515312 
	C84.692169,49.846470 85.474907,49.465004 86.587341,49.048340 
z"/>
<path fill="#F8E7D1" opacity="1.000000" stroke="none" 
	d="
M61.787193,77.582657 
	C63.217720,78.220291 64.416878,78.605446 65.829048,79.024612 
	C65.871887,80.039627 65.701706,81.020638 65.264153,82.098999 
	C62.050373,80.558571 59.103970,78.920792 56.157570,77.283012 
	C56.327026,76.870590 56.496483,76.458168 56.665939,76.045746 
	C58.295898,76.473892 59.925858,76.902039 61.787193,77.582657 
z"/>
<path fill="#BCA690" opacity="1.000000" stroke="none" 
	d="
M76.159134,135.911224 
	C74.735115,138.500992 72.935966,140.980896 70.928757,143.741318 
	C69.903099,143.505722 69.085518,142.989594 68.168655,142.183273 
	C70.640915,139.862488 73.212456,137.831924 76.159134,135.911224 
z"/>
<path fill="#BCA690" opacity="1.000000" stroke="none" 
	d="
M92.375565,154.012970 
	C93.245499,151.231308 94.115433,148.449615 95.121162,145.313599 
	C95.680481,144.985184 96.103996,145.011124 96.844856,145.063293 
	C96.657784,147.869156 96.153374,150.648788 95.118759,153.745972 
	C93.850883,154.046661 93.113228,154.029816 92.375565,154.012970 
z"/>
<path fill="#C1AA95" opacity="1.000000" stroke="none" 
	d="
M113.580048,46.064140 
	C113.521599,49.045811 113.227852,52.105778 112.896706,55.589977 
	C112.410690,55.994919 111.962074,55.975632 111.176796,55.929527 
	C110.879646,53.230591 110.919151,50.558472 111.011192,47.441177 
	C111.063728,46.996002 111.501923,47.055061 111.768784,47.117325 
	C112.035637,47.179588 112.096832,46.939972 112.096832,46.939972 
	C112.512802,46.674129 112.928780,46.408287 113.580048,46.064140 
z"/>
<path fill="#BCA690" opacity="1.000000" stroke="none" 
	d="
M88.508484,58.523258 
	C88.717415,58.173450 89.001686,58.135880 89.713013,58.044502 
	C91.051300,57.516026 91.962547,57.041351 92.927292,56.249798 
	C94.055107,56.556080 95.129417,57.179237 96.522560,57.810852 
	C95.973709,62.694626 91.713562,59.181381 89.127495,60.758911 
	C88.684135,60.103775 88.633987,59.469635 88.508484,58.523258 
z"/>
<path fill="#BDA38D" opacity="1.000000" stroke="none" 
	d="
M138.990387,147.023758 
	C138.669815,146.225418 138.349258,145.427078 138.009659,144.300598 
	C139.644272,144.590363 141.297913,145.208267 143.285477,145.810837 
	C143.202713,147.646820 143.959290,150.691818 139.992233,148.790680 
	C139.777435,148.431931 139.756500,148.036041 139.730957,147.805725 
	C139.552658,147.280579 139.314331,147.096695 138.990387,147.023758 
z"/>
<path fill="#B8A28C" opacity="1.000000" stroke="none" 
	d="
M84.992447,62.786911 
	C84.367844,61.196232 84.001762,59.829147 83.436729,57.719147 
	C85.383530,58.956398 86.769379,59.837147 88.473923,60.727676 
	C87.612068,61.495136 86.431519,62.252823 84.992447,62.786911 
z"/>
<path fill="#BCA48B" opacity="1.000000" stroke="none" 
	d="
M92.163277,154.254150 
	C93.113228,154.029816 93.850883,154.046661 94.958923,154.085602 
	C95.275131,154.758850 95.220955,155.410004 95.150803,156.387177 
	C93.826294,156.449036 92.517754,156.184875 91.102097,155.635910 
	C91.313644,155.065842 91.632317,154.780594 92.163277,154.254150 
z"/>
<path fill="#BBA48D" opacity="1.000000" stroke="none" 
	d="
M121.275307,49.008301 
	C121.449036,48.257473 121.622772,47.506645 121.870552,46.477116 
	C122.879189,46.400909 123.813774,46.603397 124.947830,47.009125 
	C124.861336,47.667072 124.575378,48.121784 123.793289,48.789925 
	C122.623215,49.005001 121.949265,49.006653 121.275307,49.008301 
z"/>
<path fill="#BDA38D" opacity="1.000000" stroke="none" 
	d="
M151.943756,136.630188 
	C150.716705,135.861877 149.462372,134.732910 148.017303,133.347412 
	C149.189865,134.150421 150.553162,135.209976 151.943756,136.630188 
z"/>
<path fill="#BCA48B" opacity="1.000000" stroke="none" 
	d="
M97.468323,155.971649 
	C97.927956,156.059158 98.233009,156.295135 98.743347,156.731735 
	C98.659538,157.776871 98.370430,158.621353 97.693733,160.597961 
	C97.290466,158.792389 97.141533,158.125565 96.972298,157.177261 
	C97.029633,156.617188 97.150208,156.358627 97.468323,155.971649 
z"/>
<path fill="#BCA690" opacity="1.000000" stroke="none" 
	d="
M130.998688,142.048492 
	C130.594254,141.983826 130.387787,141.681534 130.095795,141.116455 
	C130.493790,139.764267 130.977295,138.674881 131.714600,137.429749 
	C131.970886,137.614304 131.973373,137.954620 131.972321,138.551941 
	C131.984421,139.286087 132.000076,139.763184 132.049561,140.596344 
	C131.787796,141.238541 131.492203,141.524704 130.998688,142.048492 
z"/>
<path fill="#BBA48D" opacity="1.000000" stroke="none" 
	d="
M81.661697,51.999580 
	C81.738029,54.805130 80.623009,54.110493 79.153503,52.337357 
	C79.748894,52.046242 80.513832,52.029774 81.661697,51.999580 
z"/>
<path fill="#CEBDA8" opacity="1.000000" stroke="none" 
	d="
M112.610535,145.143127 
	C112.461166,145.655334 112.028687,146.221130 111.322784,146.860626 
	C111.475380,146.355118 111.901405,145.775925 112.610535,145.143127 
z"/>
<path fill="#CEBDA8" opacity="1.000000" stroke="none" 
	d="
M108.060196,157.085587 
	C107.855194,157.302200 107.596359,157.453705 107.337524,157.605194 
	C107.421631,157.397690 107.505737,157.190170 107.742905,156.937622 
	C107.895966,156.892593 108.006371,157.020477 108.060196,157.085587 
z"/>
<path fill="#BBA48D" opacity="1.000000" stroke="none" 
	d="
M82.033394,50.027222 
	C82.065697,50.052883 82.013992,49.967854 82.033775,50.016510 
	C82.053558,50.065166 82.001091,50.001564 82.033394,50.027222 
z"/>
<path fill="#F8E7D1" opacity="1.000000" stroke="none" 
	d="
M139.756500,148.036041 
	C139.756500,148.036041 139.777435,148.431931 139.778793,148.629852 
	C139.499084,148.826309 139.223511,148.786728 138.770752,148.609253 
	C138.588089,148.509476 138.789658,148.247284 139.085022,148.131393 
	C139.380402,148.015503 139.756500,148.036041 139.756500,148.036041 
z"/>
<path fill="#EEDEC9" opacity="1.000000" stroke="none" 
	d="
M63.170258,89.801620 
	C63.096302,89.703316 63.190525,89.554787 63.362663,89.302170 
	C63.435482,89.194855 63.591148,89.409393 63.628422,89.535866 
	C63.665695,89.662338 63.333344,89.748161 63.170258,89.801620 
z"/>
<path fill="#BDA38D" opacity="1.000000" stroke="none" 
	d="
M144.881302,130.206604 
	C144.793365,130.286194 144.632263,130.237030 144.250549,130.065338 
	C144.324066,129.805984 144.583466,129.850998 144.881302,130.206604 
z"/>
<path fill="#BEA993" opacity="1.000000" stroke="none" 
	d="
M52.133617,91.236679 
	C54.517670,91.262177 56.862518,91.672684 59.599636,92.200607 
	C59.989807,93.942093 59.987713,95.566147 59.574482,97.604759 
	C57.109524,98.346581 55.055702,98.673843 53.001881,99.001114 
	C52.699394,96.541306 52.396904,94.081497 52.133617,91.236679 
z"/>
<path fill="#F2E2CD" opacity="1.000000" stroke="none" 
	d="
M57.504459,128.901276 
	C59.894150,126.722931 62.655510,124.558899 65.711990,122.225204 
	C66.576271,122.442741 67.145439,122.829941 67.501678,123.649368 
	C66.877289,125.052055 66.465820,126.022507 66.054352,126.992958 
	C63.328281,127.633842 60.602207,128.274719 57.504459,128.901276 
z"/>
<path fill="#B59F8D" opacity="1.000000" stroke="none" 
	d="
M53.139717,99.315231 
	C55.055702,98.673843 57.109524,98.346581 59.572937,98.017708 
	C59.982533,98.016106 59.990582,98.020477 59.997070,98.427467 
	C60.040516,99.905525 60.077469,100.976585 60.114426,102.047653 
	C60.099125,102.216431 60.083820,102.385201 60.037106,102.806946 
	C56.621803,104.154495 54.272812,103.219406 53.139717,99.315231 
z"/>
<path fill="#F8E7D1" opacity="1.000000" stroke="none" 
	d="
M71.675919,129.570251 
	C69.878471,131.983566 67.725647,134.491821 65.306641,137.235168 
	C64.933830,136.614288 64.419273,135.315842 64.788193,134.975754 
	C66.847466,133.077377 69.120544,131.410919 71.675919,129.570251 
z"/>
<path fill="#F9EBD4" opacity="1.000000" stroke="none" 
	d="
M64.842743,120.587585 
	C61.725117,121.827972 58.753395,122.840111 55.781677,123.852257 
	C55.581688,123.401169 55.381695,122.950081 55.181705,122.498993 
	C57.942047,121.160500 60.702389,119.822006 63.740772,118.277420 
	C64.342094,118.834000 64.665375,119.596680 64.842743,120.587585 
z"/>
<path fill="#BAA390" opacity="1.000000" stroke="none" 
	d="
M60.384178,101.897766 
	C60.077469,100.976585 60.040516,99.905525 59.995586,98.434082 
	C60.209721,99.271767 60.431828,100.509819 60.384178,101.897766 
z"/>
<path fill="#BBA48D" opacity="1.000000" stroke="none" 
	d="
M66.358902,126.959717 
	C66.465820,126.022507 66.877289,125.052055 67.580917,123.907837 
	C67.469864,124.798210 67.066650,125.862350 66.358902,126.959717 
z"/>
<path fill="#F2E0CE" opacity="1.000000" stroke="none" 
	d="
M145.391098,141.403564 
	C143.008621,139.032700 140.904694,136.840393 138.800766,134.648102 
	C139.295959,134.134628 139.791138,133.621155 140.286316,133.107681 
	C142.667236,135.617859 145.048172,138.128021 147.429092,140.638199 
	C146.842606,140.952835 146.256119,141.267487 145.391098,141.403564 
z"/>
<path fill="#F9EBD4" opacity="1.000000" stroke="none" 
	d="
M119.706192,145.376480 
	C120.119606,144.711014 120.649323,144.426682 121.485367,144.118652 
	C122.579247,147.413666 123.366806,150.732361 124.154358,154.051056 
	C123.574120,154.224533 122.993874,154.397995 122.413628,154.571472 
	C121.549919,151.633530 120.686211,148.695572 119.706192,145.376480 
z"/>
<path fill="#C0AC97" opacity="1.000000" stroke="none" 
	d="
M65.816559,74.235809 
	C65.561920,74.167984 65.339325,74.043053 65.054611,73.303596 
	C64.971191,72.479919 64.981926,72.213669 64.992653,71.947418 
	C66.394127,69.662231 67.294205,70.170853 67.603668,72.846725 
	C66.827789,73.564560 66.322174,73.900185 65.816559,74.235809 
z"/>
<path fill="#BCA28B" opacity="1.000000" stroke="none" 
	d="
M66.083038,74.426849 
	C66.322174,73.900185 66.827789,73.564560 67.629608,73.162468 
	C67.985199,73.578491 68.044579,74.060989 68.152512,74.907928 
	C67.583885,75.054222 66.966698,74.836052 66.083038,74.426849 
z"/>
<path fill="#BCA28B" opacity="1.000000" stroke="none" 
	d="
M63.762177,71.866844 
	C63.383236,71.931404 62.794659,71.800201 62.087353,71.365143 
	C62.496597,71.264549 63.024567,71.467812 63.762177,71.866844 
z"/>
<path fill="#BCA28B" opacity="1.000000" stroke="none" 
	d="
M64.732277,71.978577 
	C64.981926,72.213669 64.971191,72.479919 64.942268,73.146645 
	C64.623207,73.263779 64.322319,72.980438 63.986637,72.387306 
	C64.125191,72.054916 64.298546,72.032333 64.732277,71.978577 
z"/>
<path fill="#B6A08D" opacity="1.000000" stroke="none" 
	d="
M121.183350,49.398499 
	C121.949265,49.006653 122.623215,49.005001 123.634048,49.007931 
	C123.239807,51.432400 122.508675,53.852287 121.626740,56.629478 
	C121.058495,56.962086 120.641045,56.937393 119.909233,56.886604 
	C120.093704,54.503235 120.592552,52.145966 121.183350,49.398499 
z"/>
<path fill="#BCA48B" opacity="1.000000" stroke="none" 
	d="
M73.226013,66.711258 
	C73.602264,66.760353 74.173302,67.068573 74.901611,67.669418 
	C74.512848,67.631500 73.966820,67.300934 73.226013,66.711258 
z"/>
<path fill="#F3E0C7" opacity="1.000000" stroke="none" 
	d="
M139.730957,147.805725 
	C139.756500,148.036041 139.380402,148.015503 139.192383,148.005615 
	C139.004379,147.995743 139.001923,147.509644 138.996155,147.266693 
	C139.314331,147.096695 139.552658,147.280579 139.730957,147.805725 
z"/>
<path fill="#BBA48D" opacity="1.000000" stroke="none" 
	d="
M112.056244,46.976959 
	C112.096832,46.939972 112.035637,47.179588 111.988922,47.137596 
	C111.942215,47.095608 112.015656,47.013947 112.056244,46.976959 
z"/>
</svg>